<svg id="Слой_1" data-name="Слой 1" xmlns="http://www.w3.org/2000/svg" viewBox="0 0 426.296 90.793">
<path d="M291.628,407.3a8.768,8.768,0,0,1,2.477,2.2c-.047.3-.081.588-.141.875a21.505,21.505,0,0,0-.333,7.239,16.623,16.623,0,0,0,5.11,10.182,14.852,14.852,0,0,0,6.628,3.679,33.112,33.112,0,0,1,3.9,1.193,16.576,16.576,0,0,1,6.383,4.341,15.025,15.025,0,0,0,1.591,1.639,4.409,4.409,0,0,0,.155-.73q.011-3.768,0-7.536a5.739,5.739,0,0,0-.5-2.229,16.009,16.009,0,0,0-3.181-4.9c-.675-.707-1.364-1.407-2.1-2.054q-4.785-4.226-9.6-8.416c-2.69-2.355-5.373-4.718-8.076-7.058-2.8-2.423-5.594-4.851-8.439-7.219-1.273-1.06-2.661-1.98-4-2.957-.307-.224-.67-.383-.828-.832a5.87,5.87,0,0,1,1.545-2.008,1.083,1.083,0,0,1,.981.359c1.6,1.265,3.239,2.493,4.791,3.818,4.758,4.062,9.479,8.166,14.22,12.248,2.741,2.361,5.5,4.694,8.234,7.069a66.4,66.4,0,0,1,6.217,6.053,5.621,5.621,0,0,0,.561.473,4.667,4.667,0,0,0,.158-.7q.037-.957.036-1.916,0-10.474,0-20.95c0-3.917-.069-7.836.024-11.751a24.139,24.139,0,0,0-1.692-9.612c-.138-.347-.241-.708-.389-1.15a4.6,4.6,0,0,1,.648-.165,32.1,32.1,0,0,1,6.175.136,3.276,3.276,0,0,1-.154.7,21.366,21.366,0,0,0-1.889,8.926q-.018,5.875-.009,11.752.035,11.56.1,23.121a5.394,5.394,0,0,0,.126,1.6,2.137,2.137,0,0,0,.466-.267,153.218,153.218,0,0,1,11.931-10.969c2.56-2.179,5.08-4.406,7.631-6.6q5.616-4.824,11.259-9.619c1.006-.851,2.091-1.608,3.147-2.4a3.828,3.828,0,0,1,.584-.294,6.748,6.748,0,0,1,1.835,2.167,3.128,3.128,0,0,1-.52.556c-4.494,2.825-8.365,6.418-12.315,9.918-2.293,2.031-4.65,3.991-6.953,6.012q-4.942,4.337-9.847,8.715c-1.145,1.018-2.293,2.035-3.382,3.11a17.46,17.46,0,0,0-3.219,4.577,6.459,6.459,0,0,0-.775,2.939c0,2.469.021,4.939.041,7.408a2.064,2.064,0,0,0,.079.418c.257.188.385.046.494-.072.318-.344.615-.707.933-1.049a17.463,17.463,0,0,1,8.469-5.216c.535-.14,1.071-.277,1.6-.425a17.011,17.011,0,0,0,9.565-6.83,16.471,16.471,0,0,0,2.726-11.546c-.1-1.015-.268-2.026-.446-3.031a1.193,1.193,0,0,1,.406-1.255,8.008,8.008,0,0,1,1.817-1.47,4.717,4.717,0,0,1,.316.729,26.391,26.391,0,0,1,.407,11.52,18.865,18.865,0,0,1-6.906,11.029,17.428,17.428,0,0,1-6.763,3.454,23.525,23.525,0,0,0-4.107,1.373,15.1,15.1,0,0,0-7.7,7.659,10.994,10.994,0,0,0-.951,3.82c-.063.977-.085,1.957-.084,2.936.006,4.982.028,9.964.038,14.945,0,.632-.033,1.264-.05,1.863a2.519,2.519,0,0,1-2.043.252.654.654,0,0,1-.538-.636c-.044-.465-.066-.934-.064-1.4.013-3.832.039-7.664.051-11.5.006-1.746-.009-3.491-.018-5.237a13.4,13.4,0,0,0-4.7-10.11,15.262,15.262,0,0,0-6.054-3.441c-.9-.264-1.793-.537-2.7-.776a15.732,15.732,0,0,1-5.877-2.976,19.477,19.477,0,0,1-7.584-15.381,35.106,35.106,0,0,1,.816-7.73A4.173,4.173,0,0,1,291.628,407.3Z" transform="translate(-84.328 -376.392)" fill="#474f4d"/>
<path d="M348.649,457.667a13.5,13.5,0,0,1-3.079,2.249,2.041,2.041,0,0,1-1.374.08c-1.255-.23-2.517-.44-3.755-.744a68.374,68.374,0,0,0-11.95-1.967,5.5,5.5,0,0,1-.664-.128,3.2,3.2,0,0,1-.183-.723c-.023-2.171-.053-4.342-.027-6.513a7.428,7.428,0,0,1,2-5.113,10.806,10.806,0,0,1,4.758-2.867,18.008,18.008,0,0,1,4.9-.784,53.543,53.543,0,0,1,7.26.4,28.265,28.265,0,0,0,8.01-.28,21.32,21.32,0,0,0,7.224-2.785,11.315,11.315,0,0,1,1.116-.613.548.548,0,0,1,.471.023.488.488,0,0,1,.123.443c-.356.911-.736,1.812-1.124,2.71a1.516,1.516,0,0,1-.818.763,25.485,25.485,0,0,1-11.317,2.721c-2.26-.046-4.5-.256-6.748-.468a22.782,22.782,0,0,0-7.613.393,9.158,9.158,0,0,0-3.755,1.83,4.377,4.377,0,0,0-1.6,3.58,3.958,3.958,0,0,0,.652-.256,19.952,19.952,0,0,1,3.923-2.116,17.228,17.228,0,0,1,7.021-1.053c1.57.087,3.143.219,4.7.424a27.183,27.183,0,0,0,11.96-1.249,1.548,1.548,0,0,1,1.025-.056,14.085,14.085,0,0,1-1.822,2.762,2.073,2.073,0,0,1-1,.521,19.339,19.339,0,0,1-6.02,1c-1.445-.027-2.89-.123-4.332-.221-1.316-.089-2.628-.239-3.943-.331a16.048,16.048,0,0,0-5.93.681,11.51,11.51,0,0,0-5.844,3.923,3.148,3.148,0,0,0-.21.316.4.4,0,0,0-.023.137c.174.4.561.312.875.345a62.415,62.415,0,0,1,7.665,1.342c1.658.383,3.329.717,5,1.014,1.129.2,2.277.3,3.416.446C347.88,457.536,348.122,457.582,348.649,457.667Z" transform="translate(-84.328 -376.392)" fill="#474f4d"/>
<path d="M309.935,457.22c-.415.059-.7.127-1,.138a58.714,58.714,0,0,0-11.334,1.755c-1.448.342-2.922.573-4.379.875a2.14,2.14,0,0,1-1.805-.384,17.892,17.892,0,0,1-2.1-1.648c.24-.419.6-.369.915-.417,1.345-.2,2.7-.365,4.036-.61,1.3-.238,2.586-.531,3.866-.849a60.284,60.284,0,0,1,7.789-1.372c.364-.041.78.048,1.107-.356a3.685,3.685,0,0,0-.292-.508,12.28,12.28,0,0,0-5.5-3.787,14.6,14.6,0,0,0-5.775-.83c-1.232.054-2.46.2-3.69.29-1.527.114-3.053.252-4.582.316a21.86,21.86,0,0,1-6.546-.945,2.3,2.3,0,0,1-1.482-1.112c-.384-.662-.8-1.306-1.194-1.964-.035-.06,0-.16,0-.247.338-.189.65.007.972.089,1.689.434,3.366.905,5.1,1.173a25.087,25.087,0,0,0,6.237.08c1.694-.161,3.386-.356,5.084-.463a16.677,16.677,0,0,1,7.384,1.126,17.206,17.206,0,0,1,3.572,1.96c.231.166.431.431.838.27a3.738,3.738,0,0,0-1.272-3.16,8.817,8.817,0,0,0-4.125-2.188,22.648,22.648,0,0,0-7.233-.414c-1.992.179-3.987.339-5.985.421a21.486,21.486,0,0,1-7.209-.739c-1.746-.534-3.457-1.186-5.172-1.82a1.382,1.382,0,0,1-.651-.576,11.35,11.35,0,0,1-1.339-3.156c-.015-.067.051-.152.1-.294a1.248,1.248,0,0,1,.447.032,9.225,9.225,0,0,1,1.009.541,22.607,22.607,0,0,0,10.642,3.218,48.676,48.676,0,0,0,7.261-.362,28.66,28.66,0,0,1,7.511.091,12.2,12.2,0,0,1,6.412,2.928,7.259,7.259,0,0,1,2.512,5.648c-.032,2.043-.015,4.087-.029,6.131C310.023,456.434,309.973,456.766,309.935,457.22Z" transform="translate(-84.328 -376.392)" fill="#474f4d"/>
<path d="M364.653,434.811a2.949,2.949,0,0,0-2.759.677,23.108,23.108,0,0,1-7.468,3.21,20.621,20.621,0,0,1-6.085.5c-2.08-.152-4.158-.328-6.238-.47a23.926,23.926,0,0,0-8.715.887,14.191,14.191,0,0,0-4.319,2.152,9.475,9.475,0,0,0-3.923,6.753,20.405,20.405,0,0,0-.112,2.294c-.013,1.66.01,3.321,0,4.981a2.372,2.372,0,0,1-.249,1.424,4.166,4.166,0,0,1-2.362.125,4.117,4.117,0,0,1-.143-.742c-.016-2.512-.137-5.03,0-7.534.282-5.136,2.922-8.763,7.462-11.067a21.125,21.125,0,0,1,4.218-1.447,24.75,24.75,0,0,1,8.994-.618c1.777.187,3.557.363,5.34.481a19.381,19.381,0,0,0,11.576-2.9c.8-.486,1.574-1.013,2.367-1.511q.7-.441,1.423-.85a1.306,1.306,0,0,1,1.227-.03c.7.3.85.54.664,1.279A6.37,6.37,0,0,1,364.653,434.811Z" transform="translate(-84.328 -376.392)" fill="#474f4d"/>
<path d="M365.106,410.451c-.794.279-1.529.5-2.231.793a16.923,16.923,0,0,0-6.273,4.7,33.436,33.436,0,0,0-4.212,6.374c-.69,1.319-1.315,2.674-2.058,3.962-.7,1.212-1.513,2.359-2.286,3.529-.23.349-.492.677-.8,1.1a4.246,4.246,0,0,0,.8.2,15.878,15.878,0,0,0,9.249-2.372c.79-.5,1.542-1.06,2.3-1.613a10.928,10.928,0,0,1,2.531-1.463,7.58,7.58,0,0,1,3.892-.354,3.128,3.128,0,0,1,.615.236,5.192,5.192,0,0,1-.245,2.792,7.148,7.148,0,0,1-.784-.073,4.633,4.633,0,0,0-3.649.737c-.708.469-1.4.966-2.09,1.462a18.172,18.172,0,0,1-11.761,3.481c-2.248-.1-4.489-.391-6.732-.6-.074-.007-.14-.082-.289-.174a2.782,2.782,0,0,1,.329-.469c.527-.5,1.079-.963,1.6-1.46a24.768,24.768,0,0,0,5.584-8,35.057,35.057,0,0,1,5.422-8.608,26.351,26.351,0,0,1,5.477-4.94,15.91,15.91,0,0,1,4.038-1.867c.694-.215.91-.118,1.155.588A3.232,3.232,0,0,1,365.106,410.451Z" transform="translate(-84.328 -376.392)" fill="#474f4d"/>
<path d="M315.145,457.316a4.316,4.316,0,0,1-2.057.054.535.535,0,0,1-.483-.514c-.029-.339-.04-.68-.042-1.02-.012-2.044-.013-4.088-.03-6.132a9.741,9.741,0,0,0-1.1-4.548,10.824,10.824,0,0,0-5.386-4.874,18.957,18.957,0,0,0-7.951-1.611c-2,.02-4,.181-5.989.32a38.837,38.837,0,0,1-7.013.025,20.38,20.38,0,0,1-8.474-3c-.435-.267-.864-.545-1.3-.818a2.3,2.3,0,0,0-2.416-.474,7.97,7.97,0,0,1-.966-2.961c.3-.218.526-.4.772-.56a1.328,1.328,0,0,1,1.453-.035c.406.231.8.48,1.193.739.815.541,1.607,1.119,2.436,1.638a18.271,18.271,0,0,0,8.905,2.828,36.121,36.121,0,0,0,5.483-.175,40.189,40.189,0,0,1,6.878-.378,21.53,21.53,0,0,1,9.963,2.859,13.366,13.366,0,0,1,4.575,4.546,11.711,11.711,0,0,1,1.687,5.825c.059,2.511.018,5.024.007,7.537A3.822,3.822,0,0,1,315.145,457.316Z" transform="translate(-84.328 -376.392)" fill="#474f4d"/>
<path d="M296.625,433.261a1.92,1.92,0,0,1-.413.156c-1.992.179-3.982.4-5.978.514a18.951,18.951,0,0,1-12.932-3.842c-.544-.409-1.1-.808-1.674-1.168a3.983,3.983,0,0,0-3.413-.564,3.857,3.857,0,0,1-.65.081,4.97,4.97,0,0,1-.514-2.474.549.549,0,0,1,.441-.56,4.823,4.823,0,0,1,.873-.175,6.874,6.874,0,0,1,4.5,1.084c.751.483,1.449,1.049,2.2,1.524a35.447,35.447,0,0,0,3.294,1.942,14.326,14.326,0,0,0,7.589,1.269,1.858,1.858,0,0,0,.409-.151,1.544,1.544,0,0,0-.187-.453,26.03,26.03,0,0,1-3.806-6.176,44.521,44.521,0,0,0-4.057-6.787,18.762,18.762,0,0,0-5.636-5.3,31.391,31.391,0,0,0-3-1.4c-.38-.171-.836-.187-1.162-.595a5.013,5.013,0,0,1,.592-2.142.605.605,0,0,1,.731-.369,3.711,3.711,0,0,1,.61.18,19.318,19.318,0,0,1,5.034,2.722,28.972,28.972,0,0,1,6.036,6.37,39.288,39.288,0,0,1,3.823,6.769,23.406,23.406,0,0,0,6.373,8.513c.259.219.5.456.748.694A1.5,1.5,0,0,1,296.625,433.261Z" transform="translate(-84.328 -376.392)" fill="#474f4d"/>
<path d="M296.552,411.531a5.022,5.022,0,0,1,.656.379c.393.324.745.7,1.154,1a1.741,1.741,0,0,1,.723,1.864,10.841,10.841,0,0,0,9.588,11.9,1.989,1.989,0,0,0,.425-.034.378.378,0,0,0-.154-.5c-1-.919-2.014-1.826-3.018-2.743-.816-.744-1.666-1.456-2.425-2.255a6.912,6.912,0,0,1-1.93-4.344,7.523,7.523,0,0,1,.041-.86,5.251,5.251,0,0,1,.723.423c.68.578,1.343,1.176,2.014,1.765,1.822,1.6,3.654,3.183,5.464,4.793a23.093,23.093,0,0,1,3.316,3.7,11.092,11.092,0,0,1,2.1,4.873c.064.413.079.833.127,1.362a2.888,2.888,0,0,1-.557-.218,20.077,20.077,0,0,0-7.167-3.219,17.58,17.58,0,0,1-4.4-1.653,13.37,13.37,0,0,1-6.522-8.145,16.2,16.2,0,0,1-.489-6.7,7.408,7.408,0,0,1,.141-.751C296.4,412.008,296.455,411.85,296.552,411.531Z" transform="translate(-84.328 -376.392)" fill="#474f4d"/>
<path d="M322.506,432.846a1.552,1.552,0,0,1-.128-.429,10.135,10.135,0,0,1,1.249-4.253,18.78,18.78,0,0,1,3.753-4.649c.944-.86,1.907-1.7,2.854-2.554,1.517-1.369,3.026-2.746,4.545-4.113a1.789,1.789,0,0,1,1.212-.681,4.964,4.964,0,0,1-.47,2.989,6.391,6.391,0,0,1-1.511,2.2c-1.086,1.017-2.2,2.006-3.3,3.012-.6.546-1.19,1.094-1.767,1.66a4.68,4.68,0,0,0-.464.651c.2.06.312.132.412.118a11.151,11.151,0,0,0,8.817-6.577,8.782,8.782,0,0,0,.862-5.588,1.327,1.327,0,0,1,.45-1.366c.576-.5,1.157-1,1.747-1.491.083-.068.231-.057.366-.086.076.119.183.215.2.327a15.184,15.184,0,0,1-1.923,10.939,13.931,13.931,0,0,1-8.291,6.2c-.858.249-1.718.5-2.587.7a15.058,15.058,0,0,0-5.481,2.644C322.9,432.61,322.723,432.708,322.506,432.846Z" transform="translate(-84.328 -376.392)" fill="#474f4d"/>
<path d="M315.119,416.7a7.074,7.074,0,0,1-.709-.442,40.589,40.589,0,0,1-4.619-4.578,15.638,15.638,0,0,1-3.378-7.473,20.588,20.588,0,0,1,.252-7.612c.212-1.129.421-2.259.588-3.4a18.8,18.8,0,0,0-1.479-10.6c-.451-1.01-.931-2.007-1.385-3.015-.118-.264-.19-.549-.3-.862a5.929,5.929,0,0,1,2.566-.828,5.058,5.058,0,0,1,.436.636c.539,1.11,1.108,2.208,1.58,3.346a22.121,22.121,0,0,1,1.47,11.267c-.2,1.688-.5,3.365-.774,5.045a16.473,16.473,0,0,0,.022,6.09,13.367,13.367,0,0,0,3.562,6.8c.537.545,1.1,1.07,1.666,1.58a1.353,1.353,0,0,1,.506,1.11C315.1,414.656,315.119,415.548,315.119,416.7Z" transform="translate(-84.328 -376.392)" fill="#474f4d"/>
<path d="M331,377.851a8.07,8.07,0,0,1,2.509.716,2.156,2.156,0,0,1-.457,1.4,27.328,27.328,0,0,0-2.186,5.161,19.87,19.87,0,0,0-.526,8.346c.2,1.516.533,3.016.808,4.523a17.126,17.126,0,0,1-5.023,15.635c-.913.949-1.908,1.82-2.875,2.717a3.122,3.122,0,0,1-.47.311c-.315-.171-.24-.407-.245-.6-.017-.68.019-1.364-.033-2.042a1.653,1.653,0,0,1,.679-1.541,13.867,13.867,0,0,0,1.833-1.768,14.57,14.57,0,0,0,3.462-11.261c-.1-1.013-.346-2.012-.5-3.021-.211-1.387-.434-2.775-.586-4.17a21.829,21.829,0,0,1,1.586-10.373c.384-.989.864-1.943,1.327-2.9A13.165,13.165,0,0,1,331,377.851Z" transform="translate(-84.328 -376.392)" fill="#474f4d"/>
<path d="M343.859,383.178c-.2.355-.353.648-.521.933a14.559,14.559,0,0,0-2.059,5.181,11.533,11.533,0,0,0,.192,4.683,4.982,4.982,0,0,0,.315.689c.188-.372.342-.615.441-.879.533-1.435,1.015-2.89,1.589-4.308.509-1.258,1.1-2.483,1.686-3.711a2.306,2.306,0,0,1,.887-1.109,6.7,6.7,0,0,1,2.192,1.532,3.326,3.326,0,0,1-.236.706,44.678,44.678,0,0,0-3,6.609c-.479,1.182-.937,2.375-1.473,3.531a13.276,13.276,0,0,1-3.753,4.769,4.827,4.827,0,0,1-.5.3,1.63,1.63,0,0,1-.139-.5,20.342,20.342,0,0,0-.58-6.072,24.45,24.45,0,0,1-.568-4.291,14.774,14.774,0,0,1,1.858-7.334,16.068,16.068,0,0,1,.992-1.633c.282-.412.52-.455.989-.24A4.778,4.778,0,0,1,343.859,383.178Z" transform="translate(-84.328 -376.392)" fill="#474f4d"/>
<path d="M293.746,383.26a5.845,5.845,0,0,1,2.26-1.393,3.884,3.884,0,0,1,.557.528,14.33,14.33,0,0,1,2.626,10.876c-.205,1.259-.469,2.509-.708,3.762a15.935,15.935,0,0,0-.254,4.321c.017.207,0,.418,0,.745a2.356,2.356,0,0,1-.593-.239,14.278,14.278,0,0,1-3.908-4.98c-.605-1.312-1.179-2.644-1.672-4a33.662,33.662,0,0,0-2.244-5,7.483,7.483,0,0,1-.77-1.626,5.847,5.847,0,0,1,2.081-1.568,1.92,1.92,0,0,1,.9.954,23.72,23.72,0,0,1,2.169,4.75c.378,1.085.774,2.164,1.175,3.24.112.3.165.654.575.836a4.03,4.03,0,0,0,.542-1.539,10.683,10.683,0,0,0-.986-6.58c-.276-.619-.653-1.193-.989-1.784C294.276,384.156,294.036,383.757,293.746,383.26Z" transform="translate(-84.328 -376.392)" fill="#474f4d"/>
<path d="M338.909,380.675c-.411.761-.769,1.435-1.136,2.1a16.176,16.176,0,0,0-2.159,8.433,22.486,22.486,0,0,0,.62,4.291,21.168,21.168,0,0,1,.655,5.182c-.014.68-.076,1.36-.14,2.037a6.1,6.1,0,0,1-1.707,3.631,13.243,13.243,0,0,1-2.132,1.885c.077-.44.1-.678.16-.907a26.789,26.789,0,0,0,.971-6.038,16.07,16.07,0,0,0-.265-3.3c-.354-1.924-.711-3.854-.924-5.8a17.665,17.665,0,0,1,1.884-9.9c.376-.763.784-1.512,1.208-2.249.287-.5.5-.573,1.064-.371A4.361,4.361,0,0,1,338.909,380.675Z" transform="translate(-84.328 -376.392)" fill="#474f4d"/>
<path d="M298.706,380.659a5.288,5.288,0,0,1,2.125-1.092.585.585,0,0,1,.735.352c.43.831.871,1.657,1.275,2.5a19.306,19.306,0,0,1,1.961,6.57,21.976,21.976,0,0,1-.448,5.966c-.19,1.046-.391,2.091-.569,3.139a18.98,18.98,0,0,0,.557,8.338,5.821,5.821,0,0,1,.383,1.61,4.8,4.8,0,0,1-.612-.36,13.412,13.412,0,0,1-2.467-2.746,5.064,5.064,0,0,1-.664-1.64,14.237,14.237,0,0,1,.082-5.956c.275-1.463.581-2.921.825-4.39a13.249,13.249,0,0,0-.949-7.743c-.521-1.163-1.12-2.291-1.684-3.435Z" transform="translate(-84.328 -376.392)" fill="#474f4d"/>
<path d="M296.51,462.3c3.754-1.877,15.492-3.18,18.712-2.158a6.248,6.248,0,0,1,.147,2.236c.026.723.015,1.447-.005,2.171a9.876,9.876,0,0,1-.134,2.329,3.714,3.714,0,0,1-2.593.029c-.368-1.39.084-2.828-.357-4.232-.354-.031-.687-.076-1.022-.086a29.915,29.915,0,0,0-9.713,1.191,2.773,2.773,0,0,1-1.988-.079c-.859-.371-1.713-.752-2.568-1.132C296.873,462.515,296.767,462.442,296.51,462.3Z" transform="translate(-84.328 -376.392)" fill="#474f4d"/>
<path d="M322.288,460.249a1.889,1.889,0,0,1,1.408-.415,51.085,51.085,0,0,1,8.266.313,58.078,58.078,0,0,1,8.471,1.764,3.118,3.118,0,0,1,.5.257c-.162.171-.249.323-.38.389-.567.289-1.143.562-1.723.823a4.549,4.549,0,0,1-3.089.281,34.028,34.028,0,0,0-9.212-1.067c-.377.012-.755.037-1.194.06a5.931,5.931,0,0,0-.163.88c-.026.892-.007,1.785-.035,2.676-.02.656-.192.845-.835.862-2.151.057-2.024.126-2.038-1.827-.009-1.274-.03-2.549-.032-3.823C322.233,461,322.272,460.586,322.288,460.249Z" transform="translate(-84.328 -376.392)" fill="#474f4d"/>
<path d="M288.02,415.982c-.4-.411-.6-.6-.778-.806-1.215-1.474-2.38-2.992-3.643-4.422a20.468,20.468,0,0,0-6.221-4.586c-.718-.365-1.471-.661-2.2-1-.223-.1-.428-.246-.669-.387a5.078,5.078,0,0,1,1.2-2.387,13.827,13.827,0,0,1,3.2,1.316,24.93,24.93,0,0,1,7.718,6.356c.026.034.055.065.082.1a5.246,5.246,0,0,1,1.4,4.217C288.048,414.8,288.058,415.222,288.02,415.982Z" transform="translate(-84.328 -376.392)" fill="#474f4d"/>
<path d="M361.9,402.4a1.745,1.745,0,0,1,.792,1.014c.6,1.394.594,1.481-.792,2.049a23.605,23.605,0,0,0-9.153,6.753c-.878,1.039-1.71,2.118-2.559,3.182-.1.131-.189.28-.371.555a3.025,3.025,0,0,1-.246-.613c-.03-.339,0-.683-.034-1.02a5.182,5.182,0,0,1,1.068-3.581,21.437,21.437,0,0,1,5.542-5.407,22.881,22.881,0,0,1,4.695-2.56C361.192,402.631,361.556,402.52,361.9,402.4Z" transform="translate(-84.328 -376.392)" fill="#474f4d"/>
<path d="M315.278,391.827c0,.582.04,1.09-.007,1.591-.129,1.354-.249,2.712-.456,4.056a23.849,23.849,0,0,0-.087,5.472c.132,1.739.222,3.481.326,5.221.015.249,0,.5,0,.719-.305.162-.459,0-.6-.153a9.612,9.612,0,0,1-2.423-4.839,17.79,17.79,0,0,1-.106-5.842c.231-1.771.5-3.537.739-5.307.073-.547.089-1.1.147-1.652a5,5,0,0,1,.139-.608,1.7,1.7,0,0,1,.427.106C314.02,391,314.655,391.42,315.278,391.827Z" transform="translate(-84.328 -376.392)" fill="#474f4d"/>
<path d="M322.417,391.819l2.042-1.344a.516.516,0,0,1,.383.559c.14,2.425.546,4.816.913,7.213a15.082,15.082,0,0,1-.149,5.582,10.62,10.62,0,0,1-2.4,4.868,4.792,4.792,0,0,1-.43.385c-.323-.145-.262-.381-.251-.577.091-1.741.115-3.491.308-5.221a30.247,30.247,0,0,0-.182-7.377c-.156-1.179-.209-2.371-.3-3.559A2.976,2.976,0,0,1,322.417,391.819Z" transform="translate(-84.328 -376.392)" fill="#474f4d"/>
<path d="M366.778,419.755a5.7,5.7,0,0,1,.135,2.274.486.486,0,0,1-.507.473c-.339.015-.679,0-1.019-.009a11.705,11.705,0,0,0-7.372,2.4,28.006,28.006,0,0,1-4.677,3.072c-.254.119-.528.2-.792.295-.054-.145-.125-.238-.1-.292a16.692,16.692,0,0,1,2.313-4.083,8.5,8.5,0,0,1,2.09-1.85,16.405,16.405,0,0,1,7.542-2.5A4.537,4.537,0,0,1,366.778,419.755Z" transform="translate(-84.328 -376.392)" fill="#474f4d"/>
<path d="M270.978,422.475a6.048,6.048,0,0,1-.038-2.718,1.548,1.548,0,0,1,1.251-.335,20.571,20.571,0,0,1,2.407.245,17.36,17.36,0,0,1,6.06,2.269,9.259,9.259,0,0,1,2.767,2.605,17.712,17.712,0,0,1,1.805,3.611c-.208.185-.418.049-.582-.046-1.029-.595-2.063-1.186-3.063-1.828-.679-.436-1.3-.957-1.957-1.432a11.994,11.994,0,0,0-7.53-2.372C271.764,422.482,271.429,422.475,270.978,422.475Z" transform="translate(-84.328 -376.392)" fill="#474f4d"/>
<path d="M360.522,399.629a1.553,1.553,0,0,1-.924.715,30.1,30.1,0,0,0-9.46,6.984,3.566,3.566,0,0,1-1.081.969,17.5,17.5,0,0,1-.736-2.586,1.006,1.006,0,0,1,.169-.584,1.4,1.4,0,0,1,.325-.388,51.482,51.482,0,0,1,8.542-6.606c.366-.214.737-.423,1.12-.6a.655.655,0,0,1,.91.186A6.7,6.7,0,0,1,360.522,399.629Z" transform="translate(-84.328 -376.392)" fill="#474f4d"/>
<path d="M288.538,408.347a39.988,39.988,0,0,0-5.326-4.914,40.5,40.5,0,0,0-5.892-3.509,4.007,4.007,0,0,1,1.184-2.3.707.707,0,0,1,.579-.112,2.421,2.421,0,0,1,.691.317,44.723,44.723,0,0,1,8.919,6.78,2.073,2.073,0,0,1,.412.484.961.961,0,0,1,.136.59C289.052,406.5,288.818,407.305,288.538,408.347Z" transform="translate(-84.328 -376.392)" fill="#474f4d"/>
<path d="M300.791,452.913a6.654,6.654,0,0,1-.69.236c-2.079.429-4.157.865-6.24,1.272a31.875,31.875,0,0,1-6.461.585,4.1,4.1,0,0,1-3.088-1.254c-.467-.486-.952-.954-1.4-1.4.121-.354.337-.335.55-.317,1.015.089,2.029.213,3.046.262A34.421,34.421,0,0,0,292.1,452c.928-.108,1.856-.219,2.787-.3a12.667,12.667,0,0,1,5.262.722,1.639,1.639,0,0,1,.343.164A2.424,2.424,0,0,1,300.791,452.913Z" transform="translate(-84.328 -376.392)" fill="#474f4d"/>
<path d="M354.631,452.16a1.656,1.656,0,0,1-.22.382c-.536.545-1.094,1.069-1.629,1.614a2.861,2.861,0,0,1-2.08.815,31.516,31.516,0,0,1-6.979-.533c-2.084-.41-4.157-.873-6.233-1.322a4.52,4.52,0,0,1-.68-.285,7.975,7.975,0,0,1,3.215-1.007,18.267,18.267,0,0,1,4.578.109,34.5,34.5,0,0,0,9.531.05,1.29,1.29,0,0,1,.374.032C354.536,452.02,354.557,452.07,354.631,452.16Z" transform="translate(-84.328 -376.392)" fill="#474f4d"/>
<path d="M324.923,387.686l-2.233.192a1.7,1.7,0,0,1-.239-1.295,20.129,20.129,0,0,1,.99-5.5c.372-1.169.857-2.306,1.344-3.434.309-.716.538-.805,1.293-.732.38.037.761.081,1.137.144.707.119.843.362.566,1.063s-.592,1.408-.893,2.11a23.871,23.871,0,0,0-1.658,5.866C325.155,386.6,325.04,387.091,324.923,387.686Z" transform="translate(-84.328 -376.392)" fill="#474f4d"/>
<path d="M315.174,387.93l-2.324-.215a5.991,5.991,0,0,1-.241-.872,26.306,26.306,0,0,0-2.469-8.121,2.488,2.488,0,0,1-.451-1.373,3.69,3.69,0,0,1,.644-.266c.371-.083.754-.117,1.132-.163.763-.093.9-.048,1.224.6.364.718.721,1.444,1.014,2.193a20.785,20.785,0,0,1,1.534,7.052C315.246,387.093,315.2,387.424,315.174,387.93Z" transform="translate(-84.328 -376.392)" fill="#474f4d"/>
<path d="M280.048,418.91c-1.113-.47-1.983-.9-2.895-1.2a24.521,24.521,0,0,0-2.949-.769c-.948-.189-1.916-.274-2.931-.413a6.381,6.381,0,0,1,.442-3.052,1.179,1.179,0,0,1,1.153-.068,11.226,11.226,0,0,1,3.667,1.72,16.165,16.165,0,0,1,3.274,3.183A3.39,3.39,0,0,1,280.048,418.91Z" transform="translate(-84.328 -376.392)" fill="#474f4d"/>
<path d="M366.469,416.5c-1.594.275-3.026.439-4.412.786-1.347.337-2.647.861-4.012,1.319-.007-.094-.064-.237-.016-.307a12.068,12.068,0,0,1,7.294-4.959,1.4,1.4,0,0,1,.378,0,.981.981,0,0,1,.209.087A10.136,10.136,0,0,1,366.469,416.5Z" transform="translate(-84.328 -376.392)" fill="#474f4d"/>
<path d="M353.361,390.381a44.274,44.274,0,0,1-5.637,4.969,3.9,3.9,0,0,1,.389-1.644,24.525,24.525,0,0,1,2.246-5,3.238,3.238,0,0,1,.476-.482A9,9,0,0,1,353.361,390.381Z" transform="translate(-84.328 -376.392)" fill="#474f4d"/>
<path d="M289.912,395.141a53.46,53.46,0,0,1-4.786-3.97,9.008,9.008,0,0,1-.643-.716,7.177,7.177,0,0,1,2.257-2.192,2.664,2.664,0,0,1,.511.469,23.865,23.865,0,0,1,2.759,6.108C290.029,394.9,289.964,394.99,289.912,395.141Z" transform="translate(-84.328 -376.392)" fill="#474f4d"/>
<path d="M387.811,428.263c0,8.122,0,15.8,0,23.476,0,2.68.386,5.433-.122,8.011a5.9,5.9,0,0,1-3.139,3.959,10.341,10.341,0,0,1-6.522-.184,5.637,5.637,0,0,1-2.827-4.255c-.19-25.789-.167-51.579-.175-77.369,0-2.831,1.61-4.558,4.3-4.564,10.934-.022,21.921-.466,32.79.439,12.67,1.055,20.211,9.245,21.653,21.656,1.425,12.261-5.084,23.216-16.312,27.454-.924.349-1.847.7-3.192,1.21,1.394,2.179,2.7,4.2,3.983,6.227,4.662,7.35,9.4,14.656,13.949,22.072,2.669,4.347.725,7.5-4.432,7.764-3.663.191-6.2-.954-8.255-4.292-6.022-9.784-12.465-19.309-18.594-29.03-1.236-1.959-2.575-2.768-4.843-2.614C393.524,428.4,390.959,428.263,387.811,428.263Zm.163-12.814c8.024,0,15.726.323,23.386-.108,5.6-.314,9.758-5.943,9.874-12.122.127-6.71-3.689-12.448-9.707-12.892-7.736-.571-15.546-.139-23.553-.139Z" transform="translate(-84.328 -376.392)" fill="#474f4d"/>
<path d="M97.319,451.4c8.462,0,16.6.006,24.743,0,5.7-.006,11.392-.08,17.087-.032,3.951.033,5.2,1.657,5.206,6.455.005,4.2-1.557,6.1-5.308,6.107q-24.793.033-49.586-.055c-3.776-.012-5.137-1.54-5.133-5.4q.039-37.691.071-75.382c0-4.486,1.328-5.842,5.744-5.84q23.957.009,47.912.035c4.89.006,6,1.253,6,6.623,0,4.531-1.422,6.019-5.993,6.028-12.173.021-24.346-.009-36.52-.018H97.3v24.391h3.914c10.051,0,20.1-.036,30.154.009,4.558.02,5.7,1.186,5.671,5.442-.035,5.779-1.068,7.049-5.916,7.059-11.162.024-22.324.008-33.807.008Z" transform="translate(-84.328 -376.392)" fill="#474f4d"/>
<path d="M475.754,377.058c5.135.032,5.861.537,7.582,5.3q13.032,36.021,26.054,72.045c.492,1.362,1.267,2.767,1.233,4.135-.037,1.49-.439,3.4-1.428,4.358-2.9,2.809-9.686.936-11.07-2.843-2.146-5.864-4.327-11.717-6.329-17.631-.6-1.765-1.387-2.454-3.3-2.435-8.708.085-17.417.091-26.123-.054-2.317-.038-3.351.825-4.072,2.933-2.02,5.909-4.187,11.769-6.4,17.609-1.534,4.045-8.74,5.195-11.815,2.049-1.675-1.714-1.1-3.4-.4-5.227q6.569-17.19,13.091-34.4c5.125-13.561,10.175-27.151,15.333-40.7C469.967,377.3,470.532,377.026,475.754,377.058Zm10.257,50.195c-3.507-9.685-6.9-19.039-10.283-28.393l-.775.17-10.21,28.223Z" transform="translate(-84.328 -376.392)" fill="#474f4d"/>
<path d="M235.84,443.8c4.117-11.682,8.025-22.571,11.787-33.51,3.23-9.392,6.284-18.843,9.431-28.263a8.174,8.174,0,0,1,11.66-4.163c2.3,1.431,2.052,3.4,1.3,5.586-3.5,10.124-6.886,20.288-10.439,30.392-5.293,15.053-10.687,30.07-16.049,45.1-1.675,4.695-2.1,4.924-8.417,4.855-4.976-.055-5.5-.463-7.045-4.906q-12.829-36.828-25.7-73.643c-1.49-4.269-.794-6.956,2.067-7.9,4.947-1.625,8.992.02,10.406,4.237q9.363,27.93,18.73,55.859C234.2,439.329,234.9,441.185,235.84,443.8Z" transform="translate(-84.328 -376.392)" fill="#474f4d"/>
<path d="M170.541,451.365c11.289,0,22.1.012,32.916,0,6.094-.01,8.872,3.69,6.575,9.4a5.78,5.78,0,0,1-4.281,2.941c-14.4.242-28.81.218-43.217.167-3.247-.012-4.57-1.791-4.578-5.662q-.058-27.642-.079-55.282c-.011-6.812-.065-13.625-.064-20.437,0-4.114,1.472-5.375,6.173-5.413,4.854-.038,6.534,1.309,6.539,5.465q.037,32.332.016,64.663C170.542,448.426,170.541,449.646,170.541,451.365Z" transform="translate(-84.328 -376.392)" fill="#474f4d"/>
</svg>